{
    "asset" : {
        "generator" : "Khronos glTF Blender I/O v1.4.40",
        "version" : "2.0"
    },
    "scene" : 0,
    "scenes" : [
        {
            "name" : "Scene",
            "nodes" : [
                0,
                1,
                2
            ]
        }
    ],
    "nodes" : [
        {
            "mesh" : 0,
            "name" : "tree_1"
        },
        {
            "mesh" : 1,
            "name" : "tree_2"
        },
        {
            "mesh" : 2,
            "name" : "tree_3"
        }
    ],
    "materials" : [
        {
            "doubleSided" : true,
            "name" : "tree",
            "pbrMetallicRoughness" : {
                "baseColorTexture" : {
                    "index" : 0,
                    "texCoord" : 0
                },
                "metallicFactor" : 0
            }
        }
    ],
    "meshes" : [
        {
            "name" : "tree_1",
            "primitives" : [
                {
                    "attributes" : {
                        "POSITION" : 0,
                        "NORMAL" : 1,
                        "TEXCOORD_0" : 2
                    },
                    "indices" : 3,
                    "material" : 0
                }
            ]
        },
        {
            "name" : "tree_2",
            "primitives" : [
                {
                    "attributes" : {
                        "POSITION" : 4,
                        "NORMAL" : 5,
                        "TEXCOORD_0" : 6
                    },
                    "indices" : 7,
                    "material" : 0
                }
            ]
        },
        {
            "name" : "tree_3",
            "primitives" : [
                {
                    "attributes" : {
                        "POSITION" : 8,
                        "NORMAL" : 9,
                        "TEXCOORD_0" : 10
                    },
                    "indices" : 11,
                    "material" : 0
                }
            ]
        }
    ],
    "textures" : [
        {
            "sampler" : 0,
            "source" : 0
        }
    ],
    "images" : [
        {
            "bufferView" : 4,
            "mimeType" : "image/png",
            "name" : "palette01"
        }
    ],
    "accessors" : [
        {
            "bufferView" : 0,
            "componentType" : 5126,
            "count" : 882,
            "max" : [
                6.640360355377197,
                3.0146920680999756,
                1.3815897703170776
            ],
            "min" : [
                3.5200467109680176,
                0,
                -1.4584192037582397
            ],
            "type" : "VEC3"
        },
        {
            "bufferView" : 1,
            "componentType" : 5126,
            "count" : 882,
            "type" : "VEC3"
        },
        {
            "bufferView" : 2,
            "componentType" : 5126,
            "count" : 882,
            "type" : "VEC2"
        },
        {
            "bufferView" : 3,
            "componentType" : 5123,
            "count" : 1056,
            "type" : "SCALAR"
        },
        {
            "bufferView" : 5,
            "componentType" : 5126,
            "count" : 180,
            "max" : [
                10.92892837524414,
                2.505983591079712,
                1.0524251461029053
            ],
            "min" : [
                9.061314582824707,
                -1.0593794286251068e-07,
                -0.9733132123947144
            ],
            "type" : "VEC3"
        },
        {
            "bufferView" : 6,
            "componentType" : 5126,
            "count" : 180,
            "type" : "VEC3"
        },
        {
            "bufferView" : 7,
            "componentType" : 5126,
            "count" : 180,
            "type" : "VEC2"
        },
        {
            "bufferView" : 8,
            "componentType" : 5123,
            "count" : 300,
            "type" : "SCALAR"
        },
        {
            "bufferView" : 9,
            "componentType" : 5126,
            "count" : 590,
            "max" : [
                1.3450109958648682,
                3.5591022968292236,
                1.912638545036316
            ],
            "min" : [
                -1.9760710000991821,
                0,
                -1.5032325983047485
            ],
            "type" : "VEC3"
        },
        {
            "bufferView" : 10,
            "componentType" : 5126,
            "count" : 590,
            "type" : "VEC3"
        },
        {
            "bufferView" : 11,
            "componentType" : 5126,
            "count" : 590,
            "type" : "VEC2"
        },
        {
            "bufferView" : 12,
            "componentType" : 5123,
            "count" : 822,
            "type" : "SCALAR"
        }
    ],
    "bufferViews" : [
        {
            "buffer" : 0,
            "byteLength" : 10584,
            "byteOffset" : 0
        },
        {
            "buffer" : 0,
            "byteLength" : 10584,
            "byteOffset" : 10584
        },
        {
            "buffer" : 0,
            "byteLength" : 7056,
            "byteOffset" : 21168
        },
        {
            "buffer" : 0,
            "byteLength" : 2112,
            "byteOffset" : 28224
        },
        {
            "buffer" : 0,
            "byteLength" : 1126,
            "byteOffset" : 30336
        },
        {
            "buffer" : 0,
            "byteLength" : 2160,
            "byteOffset" : 31464
        },
        {
            "buffer" : 0,
            "byteLength" : 2160,
            "byteOffset" : 33624
        },
        {
            "buffer" : 0,
            "byteLength" : 1440,
            "byteOffset" : 35784
        },
        {
            "buffer" : 0,
            "byteLength" : 600,
            "byteOffset" : 37224
        },
        {
            "buffer" : 0,
            "byteLength" : 7080,
            "byteOffset" : 37824
        },
        {
            "buffer" : 0,
            "byteLength" : 7080,
            "byteOffset" : 44904
        },
        {
            "buffer" : 0,
            "byteLength" : 4720,
            "byteOffset" : 51984
        },
        {
            "buffer" : 0,
            "byteLength" : 1644,
            "byteOffset" : 56704
        }
    ],
    "samplers" : [
        {
            "magFilter" : 9729,
            "minFilter" : 9986
        }
    ],
    "buffers" : [
        {
            "byteLength" : 58348,
            "uri" : "data:application/octet-stream;base64,"
        }
    ]
}
